<?xml version="1.0" encoding="UTF-8" standalone="no"?>
<!-- Created with Inkscape (http://www.inkscape.org/) -->

<svg
   width="210mm"
   height="297mm"
   viewBox="0 0 210 297"
   version="1.1"
   id="svg1"
   xml:space="preserve"
   xmlns:inkscape="http://www.inkscape.org/namespaces/inkscape"
   xmlns:sodipodi="http://sodipodi.sourceforge.net/DTD/sodipodi-0.dtd"
   xmlns="http://www.w3.org/2000/svg"
   xmlns:svg="http://www.w3.org/2000/svg"><sodipodi:namedview
     id="namedview1"
     pagecolor="#ffffff"
     bordercolor="#000000"
     borderopacity="0.25"
     inkscape:showpageshadow="2"
     inkscape:pageopacity="0.0"
     inkscape:pagecheckerboard="0"
     inkscape:deskcolor="#d1d1d1"
     inkscape:document-units="mm" /><defs
     id="defs1"><inkscape:path-effect
       effect="bspline"
       id="path-effect31444"
       is_visible="true"
       lpeversion="1.3"
       weight="33.333333"
       steps="2"
       helper_size="0"
       apply_no_weight="true"
       apply_with_weight="true"
       only_selected="false"
       uniform="false" /><inkscape:path-effect
       effect="bspline"
       id="path-effect31437"
       is_visible="true"
       lpeversion="1.3"
       weight="33.333333"
       steps="2"
       helper_size="0"
       apply_no_weight="true"
       apply_with_weight="true"
       only_selected="false"
       uniform="false" /><clipPath
       clipPathUnits="userSpaceOnUse"
       id="clipPath31437"><g
         id="g31439"
         transform="translate(-3.152788,0.52546467)"><g
           inkscape:label="Clip"
           id="g31438"
           transform="translate(3.0652106,-0.35030978)"><path
             style="fill:#201711;stroke:none"
             d="m 63.182268,112.39895 v 84.90104 h 0.542228 v -84.90104 h -0.542228 m -13.615937,3.153 c -2.401123,0.26086 -3.406004,1.93371 -4.324672,4.03141 -1.737242,3.96687 -2.08803,10.19999 2.758236,11.94753 0.682164,0.24598 1.504872,0.40745 2.229158,0.33594 0.643201,-0.0635 1.27142,-0.17576 1.867673,-0.44226 3.120512,-1.39472 3.494356,-5.35525 3.494356,-8.40518 0,-1.3407 0.01716,-2.65661 -0.437177,-3.93581 -0.84476,-2.37846 -3.165153,-3.79479 -5.587574,-3.53163 m -13.856928,3.07235 c -3.306914,0.61985 -3.169658,4.47143 -2.962934,7.14391 0.05792,0.74876 0.170187,1.46254 0.366725,2.18656 0.483821,1.78235 1.736181,3.22226 3.680664,2.87815 1.495344,-0.26463 2.291847,-1.44004 2.828382,-2.81568 0.250673,-0.6427 0.378099,-1.31594 0.469044,-1.99914 0.359753,-2.7025 0.397264,-7.06346 -3.116684,-7.41592 -0.406843,-0.0408 -0.862009,-0.0535 -1.265197,0.0221 m -8.856385,5.67712 c -3.124733,0.38291 -3.224315,4.59897 -2.516666,7.02691 0.399934,1.37216 1.64401,2.41036 3.058894,2.2261 2.873419,-0.37421 3.498984,-4.96392 2.550742,-7.22396 -0.520319,-1.24013 -1.746002,-2.19411 -3.09297,-2.02905 m 81.876372,4.37439 c -1.02512,0.053 -2.02222,0.22807 -2.89188,0.83449 -2.65556,1.85174 -2.90611,6.76785 -0.75941,9.11828 1.08746,1.19067 2.72202,1.58789 4.25377,1.4999 1.45448,-0.0836 2.85145,-0.75453 3.72308,-1.99058 1.97423,-2.79962 1.17177,-7.88435 -2.15665,-9.13328 -0.66798,-0.25065 -1.45943,-0.36552 -2.16891,-0.32881 m 29.28029,7.46295 -2.10866,0.18742 c 0.0989,1.20236 0.58269,2.36982 1.56655,3.07042 2.07791,1.47966 6.25979,1.0051 7.00534,-1.82096 0.69914,-2.65016 -1.45854,-3.9402 -3.57135,-4.49023 -0.73859,-0.19228 -2.1914,-0.37395 -2.4631,-1.25856 -0.27016,-0.87956 0.88755,-1.22946 1.49914,-1.28595 1.13682,-0.10501 1.88319,0.48301 2.16891,1.59958 l 2.16891,-0.12495 c -0.14319,-2.60716 -2.37326,-3.45581 -4.57881,-3.31457 -1.41825,0.0908 -2.86756,0.71408 -3.2974,2.25253 -0.75265,2.6939 1.7877,3.7163 3.77938,4.2764 0.73882,0.20776 2.02558,0.38399 2.19452,1.34624 0.19848,1.13043 -1.22307,1.68659 -2.07402,1.67228 -1.26414,-0.0213 -2.01946,-0.89516 -2.28941,-2.10965 m 43.86019,-7.46295 c -1.35345,0.07 -2.6235,0.4242 -3.584,1.47844 -2.28188,2.50458 -1.92953,7.67363 1.11385,9.36624 0.93296,0.51888 2.02597,0.66809 3.07263,0.60799 1.35813,-0.078 2.69178,-0.62807 3.56737,-1.74096 2.17957,-2.77027 1.49023,-8.13189 -2.00094,-9.38512 -0.68177,-0.24473 -1.44704,-0.36394 -2.16891,-0.32659 M 74.267811,139.94962 c 1.884051,0 4.072745,0.31372 5.904256,-0.20203 3.566385,-1.00429 4.006813,-6.88299 1.884397,-9.47916 -1.118646,-1.36836 -2.810908,-1.43862 -4.414793,-1.43903 l -2.4099,-1e-5 c -0.240262,4e-5 -0.689625,-0.0802 -0.865926,0.13591 -0.156943,0.19235 -0.09794,0.56885 -0.09803,0.80119 l -7e-6,2.06162 v 8.12151 m 10.784307,-11.12023 v 11.12023 h 8.193662 v -1.8742 h -6.024751 v -2.99871 h 5.362029 v -1.87419 h -5.362029 v -2.43646 h 5.783761 v -1.93667 h -7.952672 m 9.94084,11.12023 h 2.229158 v -4.68549 h 4.458317 v -1.93667 h -4.458317 v -2.5614 h 5.121047 v -1.93667 h -5.30179 c -0.447031,0 -1.562839,-0.20936 -1.917352,0.10166 -0.187964,0.16491 -0.130828,0.54795 -0.131041,0.77298 l -2.2e-5,1.99913 v 8.24646 M 115.7181,128.82939 v 11.12023 h 2.16891 v -4.62302 c 0.53441,10e-6 1.13501,-0.0519 1.62667,0.20742 1.10705,0.58378 1.82906,2.26333 2.50769,3.29108 0.21105,0.31964 0.40706,0.76036 0.71747,0.98861 0.55722,0.40976 1.95238,0.13591 2.61887,0.13591 -0.9,-1.76568 -2.01341,-3.72768 -3.61486,-4.87291 0.84847,-0.24197 1.6197,-0.49441 2.18198,-1.24978 1.0113,-1.35859 0.609,-3.69541 -0.85654,-4.52787 -0.68245,-0.38765 -1.47772,-0.36735 -2.22915,-0.4195 -1.6992,-0.11792 -3.41775,-0.0502 -5.12104,-0.0502 m 10.78431,0 v 11.12022 h 8.13341 v -1.87419 h -5.9645 v -2.99871 h 5.36203 v -1.8742 h -5.36203 v -2.43646 h 5.78376 c 0,-0.40587 0.1906,-1.55282 -0.13106,-1.83501 -0.37044,-0.325 -1.56878,-0.10166 -2.03785,-0.10166 h -5.78376 m 19.09846,1.93667 h 3.19312 v 9.18356 h 2.16891 v -9.18356 h 3.13287 v -1.93667 h -6.14525 c -0.50195,0 -1.82447,-0.24412 -2.21859,0.10166 -0.32166,0.2822 -0.13106,1.42914 -0.13106,1.83501 m 7.71168,9.18356 c 0.58575,0 1.6693,0.21801 2.19039,-0.0734 0.22209,-0.12421 0.29272,-0.44972 0.37313,-0.67632 0.20337,-0.57308 0.44597,-1.15108 0.56935,-1.74918 h 4.33782 c 0.13702,0.59971 0.38617,1.17627 0.60254,1.74918 0.0874,0.23153 0.16482,0.55213 0.39477,0.67632 0.54592,0.29485 1.64654,0.0734 2.25606,0.0734 -1.0434,-2.73161 -2.10465,-5.45605 -3.15697,-8.18399 l -0.79527,-2.0616 c -0.0977,-0.25298 -0.18454,-0.65866 -0.43236,-0.8012 -0.38088,-0.21909 -1.97913,-0.22693 -2.25328,0.14807 -0.6581,0.90022 -0.93825,2.41366 -1.33915,3.46441 -0.59464,1.55851 -1.17018,3.12496 -1.75989,4.68549 -0.33924,0.89773 -0.76932,1.8103 -0.98714,2.74882 m 13.13396,-9.18356 v 9.18356 h 2.16891 v -9.18356 h 2.10866 c 0.26529,0 0.67751,0.0751 0.91472,-0.0734 0.3071,-0.1923 0.29834,-1.66057 -0.0439,-1.81216 -0.61276,-0.27144 -1.71354,-0.0511 -2.37703,-0.0511 -1.82469,0 -3.72143,-0.15601 -5.53872,0.008 -0.5495,0.0495 -0.66974,1.59653 -0.25604,1.85557 0.23723,0.14854 0.64941,0.0734 0.91472,0.0734 h 2.10866 m 6.62723,-1.93667 v 11.12023 h 2.16891 v -11.12027 h -2.16891 m 15.84509,0 v 11.12023 h 1.98817 v -7.12194 c 1.16882,1.58829 2.08557,3.42868 3.10654,5.1228 0.31504,0.52274 0.72672,1.64034 1.26874,1.92571 0.52782,0.27789 1.54596,0.0734 2.13145,0.0734 v -11.12023 c -0.45027,0 -1.56179,-0.2103 -1.91736,0.10166 -0.32077,0.28142 -0.13106,1.43275 -0.13106,1.83501 v 5.3727 c -1.04368,-1.68669 -2.02488,-3.41715 -3.03955,-5.1228 -0.35034,-0.58892 -0.76083,-1.71492 -1.33573,-2.08491 -0.47998,-0.3089 -1.51868,-0.10166 -2.0712,-0.10166 m -170.440196,1.47509 c -2.595193,0.44449 -3.027674,4.55206 -2.072195,6.58395 0.545976,1.16107 1.651099,1.92135 2.91566,1.71311 3.973615,-0.65438 3.490357,-9.03933 -0.843465,-8.29706 m 90.070036,0.29874 c 4.06021,-0.45929 4.52703,7.11814 0.78322,7.57607 -4.19296,0.51287 -4.73358,-7.1292 -0.78322,-7.57607 m 73.20073,6e-5 c 2.63366,-0.29353 3.46526,2.45008 3.18886,4.66085 -0.17363,1.38892 -0.94536,2.7365 -2.40565,2.91516 -4.23046,0.5176 -4.76618,-7.13209 -0.78321,-7.57601 m -105.312659,7.47214 v -7.30936 c 1.09431,0 2.611809,-0.27223 3.553243,0.43499 1.291078,0.96987 1.174076,3.3694 0.91306,4.81276 -0.107963,0.59699 -0.316674,1.22713 -0.801699,1.60717 -0.947214,0.74218 -2.551297,0.45444 -3.664604,0.45444 m 41.450289,-4.56054 v -2.74882 h 2.47015 c 0.47057,5e-5 0.97429,-0.0376 1.37746,0.2622 0.70249,0.5223 0.66006,1.85177 -0.11633,2.27921 -0.45504,0.25051 -1.00579,0.19524 -1.50212,0.21088 -0.74669,0.0235 -1.48431,0.11938 -2.22916,-0.004 m 40.72732,-2.06161 1.3857,4.12323 h -2.83164 c 0.30624,-1.34374 0.83985,-2.89347 1.44594,-4.12323 M 12.51411,181.55675 c -0.554998,0.75902 -1.200619,1.3959 -1.840457,2.07367 -0.398986,0.42264 -0.8341958,0.80756 -1.225379,1.23769 -0.9683343,1.06473 -0.6721368,2.45515 0.836678,2.65346 1.408735,0.18516 3.029252,-0.55247 4.398069,-0.84569 0.386192,-0.0827 0.907377,-0.32837 1.301885,-0.26533 0.413173,0.066 -0.0048,0.97474 -0.07569,1.2061 -0.138497,0.45208 -0.363337,1.02109 -0.212856,1.49777 0.243639,0.77178 1.546353,0.77278 2.115867,0.44253 0.836346,-0.48498 1.147327,-2.06611 1.466814,-2.93987 0.442044,-1.20894 0.966522,-3.0924 1.922883,-3.96586 0.425064,-0.38823 1.093569,-0.58428 1.614511,-0.79802 0.459213,-0.18843 0.925844,-0.35589 1.385619,-0.54256 0.149371,-0.0606 0.384939,-0.19512 0.547348,-0.11429 0.179763,0.0895 0.09844,0.39431 0.07576,0.54807 -0.07083,0.48019 -0.01893,1.06126 -0.453995,1.36076 -1.058106,0.72841 -3.348026,1.24177 -3.167414,2.94806 0.100511,0.94954 1.514231,0.0924 1.069135,1.1887 -0.414277,1.02036 -0.878014,2.02395 -1.251763,3.06106 -0.147568,0.40949 -0.316635,0.91229 0.06914,1.24148 0.941174,0.80314 1.922281,0.0893 2.696605,-0.45655 0.722141,-0.50908 1.656349,-0.80084 2.463678,-1.13446 0.309342,-0.12782 0.68329,-0.38105 1.023649,-0.37915 0.336326,0.002 0.566468,0.3598 0.758185,0.60045 0.503234,0.63169 0.913604,1.42198 1.487335,1.98268 0.421504,0.41193 1.427637,0.51768 1.875292,0.0819 0.28519,-0.2776 0.284581,-0.72632 0.104742,-1.06175 -0.402003,-0.74979 -0.982209,-1.41558 -1.448038,-2.12436 -0.138078,-0.21009 -0.433963,-0.52211 -0.387835,-0.79917 0.07277,-0.43709 0.955266,-0.75915 1.285976,-0.95471 0.292023,-0.17268 0.623829,-0.46009 0.959941,-0.52295 0.490967,-0.0918 0.988418,0.98382 1.208517,1.34 0.506434,0.81957 1.034508,1.62675 1.555742,2.43646 0.415066,0.64477 0.848496,1.28782 1.698058,1.20309 1.954132,-0.19489 0.25685,-2.28587 1.8e-5,-3.20223 0.636629,0.25726 1.570102,0.5483 2.102669,0.98287 0.445675,0.36368 0.648091,0.99928 1.152936,1.28718 0.60163,0.3431 1.392003,0.30725 2.046176,0.47141 0.58563,0.14696 1.788948,0.58773 2.179012,-0.13386 0.313196,-0.57938 -0.36635,-1.09824 -0.793337,-1.32458 -0.759595,-0.40263 -1.75818,-0.35525 -2.464357,-0.80805 -0.422214,-0.27073 -0.631481,-0.79341 -0.979584,-1.14749 -0.474449,-0.48259 -1.098374,-0.7943 -1.677079,-1.11913 -0.61543,-0.34543 -1.378666,-0.66858 -1.920302,-1.1242 -0.66669,-0.56082 -1.189333,-1.43535 -1.695788,-2.14795 -0.366972,-0.51633 -0.840101,-1.06971 -1.043631,-1.6833 -0.173675,-0.52358 -0.09983,-1.14154 -0.09983,-1.68678 v -3.18613 c 0,-3.41308 0.01234,-6.8433 -0.24099,-10.2456 -0.393127,0.40167 -0.317368,1.15414 -0.393061,1.68677 -0.17927,1.26148 -0.148365,3.10538 -0.886268,4.17681 -0.615779,0.89412 -1.522789,0.33926 -1.724852,-0.55336 -0.412622,-1.82278 -0.03391,-3.74592 -0.490175,-5.56011 h -0.06025 c -0.23737,1.54746 -0.120495,3.18528 -0.120495,4.74796 0,2.26881 -0.06025,4.53833 -0.06025,6.80957 0,1.39175 0.214298,3.01189 -0.100011,4.37313 -0.172025,0.74502 -0.825985,1.49505 -1.231321,2.12408 -0.502536,0.77988 -0.97255,1.93785 -1.655134,2.55171 -0.462402,0.41585 -1.478141,0.75726 -2.074325,0.88431 l 1.827757,-3.49849 0.942141,-1.93667 0.06173,-1.56183 v -2.87376 l -0.115104,-6.87205 -0.125886,-2.74882 h -0.06025 c -0.795761,3.08352 -1.320799,6.65763 -3.855858,8.82575 -0.830497,0.71029 -1.850261,1.08602 -2.831616,1.50788 -0.431639,0.18556 -1.003882,0.28809 -1.343206,0.63739 -1.094057,1.12622 -1.434371,2.94639 -2.452961,4.10617 -0.297744,0.33901 -0.917759,0.3871 -1.324872,0.50206 -1.129464,0.31895 -2.328801,0.87026 -3.494355,0.97614 0.801527,-1.33929 2.403279,-1.93878 3.307757,-3.13594 0.977671,-1.29404 1.158409,-3.19517 2.255965,-4.41206 0.456205,-0.50581 1.113352,-0.72163 1.665714,-1.08247 0.759472,-0.49614 1.304274,-1.27623 1.524435,-2.17739 0.507715,-2.07817 0.102513,-4.5543 0.102513,-6.68463 0,-4.55584 -0.0086,-9.12654 0.01147,-13.68163 0.0088,-2.0022 -0.273973,-4.22787 0.208724,-6.18484 0.734682,-2.97857 3.859279,-5.55978 6.527526,-6.62216 -0.549052,0.54324 -1.184903,0.98955 -1.704878,1.56658 -1.670209,1.85344 -2.703975,4.05185 -2.69292,6.61741 0.0027,0.62302 0.05457,1.27799 0.236532,1.87419 0.108693,0.35615 0.406317,0.8029 0.389812,1.17848 -0.01748,0.39777 -0.354614,0.71875 -0.377348,1.15001 -0.154618,2.9331 -0.0083,5.9164 -0.0083,8.85421 v 5.87248 c 7e-6,0.65766 -0.06369,1.67714 0.783824,1.79211 1.514208,0.20542 1.144096,-2.48336 1.144096,-3.41641 v -11.80743 c 0.929178,0.66242 1.647888,1.63374 2.590643,2.31198 0.363986,0.26186 1.010812,0.46926 1.161346,0.9401 0.1132,0.35407 0.0436,0.81472 0.0436,1.18351 l 1.17e-4,2.43646 c 0.0016,0.66267 0.07023,1.35438 0.723257,1.67561 0.513128,0.25241 1.136521,-0.0702 1.3207,-0.61428 0.269917,-0.79735 0.08323,-2.04086 0.02072,-2.87305 -0.02085,-0.27752 -0.09838,-0.77066 0.08166,-1.00627 0.245143,-0.32082 1.472387,0.13918 1.829886,0.18917 0.364213,0.0509 1.115866,-0.0647 1.37512,0.24344 0.309622,0.36799 0.131067,1.36284 0.131067,1.82312 v 5.06033 c 0,1.14318 -0.206115,2.59288 0.166461,3.68591 0.345029,1.01223 1.356488,1.83297 1.449323,2.93624 0.174252,2.07083 0.0109,4.23056 0.0109,6.30979 0,1.00529 -0.147066,2.13674 0.307651,3.06119 0.687831,1.39837 1.776033,2.59808 2.79838,3.73607 0.759694,0.84563 1.58096,1.77254 2.557235,2.35469 0.591473,0.35271 1.286809,0.52943 1.927921,0.76049 0.950435,0.34253 3.058966,0.83444 3.800653,-0.18368 0.46166,-0.63373 -0.398993,-1.05243 -0.848525,-1.24882 -0.891258,-0.38939 -1.807356,-0.6881 -2.711138,-1.04 -0.363144,-0.14139 -0.811227,-0.22174 -1.126821,-0.46152 -0.424678,-0.32267 -0.629668,-0.89533 -0.981842,-1.29336 1.454515,-0.92414 2.638557,-0.32208 4.096831,0.15092 0.869536,0.28203 1.8048,0.47117 2.711138,0.55268 0.811139,0.0729 1.931767,0.22374 2.572944,-0.42035 0.432695,-0.43466 0.282098,-0.9902 -0.168214,-1.33705 -0.788064,-0.607 -1.880664,-0.87992 -2.766215,-1.30975 -1.163813,-0.56488 -2.320125,-1.16504 -3.313613,-2.02183 -3.220003,-2.77696 -5.049679,-7.21844 -5.460656,-11.4828 -0.350714,-3.63908 -0.09726,-7.24265 2.019627,-10.30808 1.874233,-2.71404 4.725815,-4.31438 6.918741,-6.69022 2.378174,-2.57652 3.429975,-5.90296 3.32691,-9.42786 -0.104175,-3.5629 -2.158404,-6.36515 -5.358682,-7.61175 -0.944232,-0.36781 -1.960438,-0.45669 -2.952128,-0.58902 -1.653144,-0.22059 -3.244088,0.0732 -4.880049,0.29159 -2.840734,0.37921 -5.633177,1.28328 -8.314157,2.30973 -2.242381,0.85852 -4.46521,1.79645 -6.506731,3.10259 -1.440952,0.92191 -2.812328,2.09491 -3.88271,3.46191 -2.421962,3.09312 -2.322784,6.64587 -2.322784,10.40507 v 9.74582 c 0,2.49232 0.214129,5.07089 -0.443512,7.49678 -0.31768,1.17184 -0.846813,2.19801 -1.424865,3.2486 -0.585903,1.06486 -1.300612,2.01958 -2.082633,2.93624 -0.291798,0.34203 -0.622596,0.83603 -1.051493,0.99712 -0.763337,0.28671 -1.835686,-0.1108 -2.6489303,-0.0471 -0.9885778,0.0774 -1.6305223,0.62211 -2.4099005,1.19463 -0.8113029,0.59598 -1.651229,0.99254 -2.5296537,1.45353 -0.3082453,0.16177 -0.6000347,0.44842 -0.5710748,0.8363 0.048671,0.65188 0.8412293,0.89398 1.3535506,0.99303 1.0646805,0.20584 2.0146434,0.0117 2.9521281,-0.55318 0.4762905,-0.287 1.0188316,-0.88195 1.5664353,-0.97319 0.3491913,-0.0582 0.6888973,0.10486 1.0242073,0.17758 0.559357,0.12132 1.129454,0.16815 1.68693,0.2944 m 30.786479,-39.23315 -2.65089,1.50842 -4.337821,2.65697 -1.927921,1.54885 -1.325445,1.03286 c 0.03712,-2.10896 0.970072,-3.74713 1.566435,-5.68506 -1.638517,0.98666 -2.874222,3.3095 -3.264625,5.18528 -0.1437,0.69043 0.0233,1.50487 -0.211802,2.16752 -0.13154,0.37077 -0.631038,0.63145 -0.898118,0.89698 -0.545397,0.54224 -1.087546,1.08465 -1.576178,1.68346 -0.201491,0.24692 -0.380584,0.68129 -0.650913,0.84748 -0.2145,0.13187 -0.399943,-0.0727 -0.528291,-0.233 -0.335649,-0.41927 -0.597401,-0.92741 -0.803255,-1.42663 -0.749996,-1.81883 -0.470242,-3.7615 0.392662,-5.49764 2.032221,-4.08878 6.261004,-6.17036 10.432401,-7.07992 1.508942,-0.32901 3.059992,-0.3459 4.578811,-0.58934 1.273788,-0.20417 2.552264,-0.38691 3.795593,-0.75726 0.27107,-0.0807 0.984373,-0.55412 1.240495,-0.33561 0.235433,0.20085 -0.01679,0.99368 -0.04424,1.26535 -0.128934,1.27578 -0.392793,2.54576 -0.592366,3.81086 -0.839567,5.32209 -3.127837,12.10661 -8.978288,13.25088 -1.902614,0.37212 -3.971765,0.19305 -5.844009,-0.30337 -0.367065,-0.0973 -1.837453,-0.32349 -1.71922,-0.89594 0.0725,-0.35102 0.45364,-0.63587 0.679396,-0.88322 0.569371,-0.62385 1.135237,-1.25076 1.71443,-1.86486 2.463402,-2.61188 5.183943,-4.77605 7.880541,-7.1066 0.766748,-0.66266 1.513954,-1.34496 2.228033,-2.06832 0.334707,-0.33906 0.732101,-0.63716 0.84459,-1.12814 m -10.181829,1.93667 0.06025,0.0625 -0.06025,-0.0625 m 54.885484,2.97007 c -0.975272,0.0505 -1.932885,0.21186 -2.771386,0.76625 -2.602175,1.72046 -3.056487,6.46487 -1.112645,8.88321 1.116756,1.38936 2.7895,1.90069 4.486506,1.80321 1.47093,-0.0845 2.860175,-0.73672 3.741494,-1.9907 1.994676,-2.83814 1.157874,-7.94328 -2.235306,-9.15528 -0.655736,-0.23422 -1.415449,-0.34257 -2.108663,-0.30669 m 11.567522,0 c -1.256725,0.065 -2.43292,0.36828 -3.372735,1.28787 -2.206499,2.15898 -2.282831,6.85468 0.06022,8.95701 1.093376,0.98105 2.564233,1.29065 3.975244,1.20772 1.42288,-0.0836 2.79386,-0.73104 3.65904,-1.92804 1.91267,-2.64623 1.34646,-7.58461 -1.73113,-9.03182 -0.79055,-0.37176 -1.72402,-0.53759 -2.590637,-0.49274 m -25.243708,0.15359 v 11.12022 h 2.168911 v -4.68549 h 4.458316 v -1.93666 h -4.458316 v -2.56141 h 5.181286 v -1.93666 h -7.350197 m 31.509445,0 v 1.93666 h 3.19312 v 9.18356 h 2.16891 v -9.18356 h 3.13287 v -1.93666 h -8.4949 m 9.88059,0 v 11.12022 h 2.16891 v -4.1857 c 1.42436,0 3.2361,0.26606 4.51852,-0.5096 1.93909,-1.17284 2.07249,-4.54854 0.17883,-5.84465 -0.73129,-0.50053 -1.56976,-0.4872 -2.40794,-0.52339 -1.48554,-0.0641 -2.97032,-0.0569 -4.45832,-0.0569 m 9.94084,0 v 11.12022 h 2.16891 v -4.62301 c 0.53442,1e-5 1.13501,-0.0519 1.62667,0.20741 1.10703,0.58378 1.82908,2.26333 2.50769,3.29109 0.21104,0.31962 0.40708,0.76036 0.71747,0.98861 0.55721,0.40976 1.95239,0.1359 2.61886,0.1359 -0.9,-1.76569 -2.0134,-3.72766 -3.61485,-4.8729 0.84847,-0.24198 1.61972,-0.49441 2.18198,-1.24979 1.01127,-1.35859 0.60902,-3.69539 -0.85653,-4.52787 -0.68246,-0.38766 -1.47771,-0.36735 -2.22916,-0.4195 -1.6992,-0.11792 -3.41775,-0.0502 -5.12104,-0.0502 m 10.72406,0 v 11.12023 h 2.16891 v -11.12021 h -2.16891 m 4.21733,0 v 11.12022 h 1.98816 v -7.12194 c 1.16896,1.58848 2.08549,3.42854 3.10655,5.1228 0.31502,0.52273 0.72673,1.64036 1.26874,1.92571 0.52781,0.27789 1.54596,0.0734 2.13145,0.0734 v -11.12022 c -0.45027,0 -1.56178,-0.21031 -1.91736,0.10165 -0.32078,0.28142 -0.13106,1.43275 -0.13106,1.83502 v 5.37269 c -1.04368,-1.68669 -2.02488,-3.41715 -3.03956,-5.1228 -0.35033,-0.58893 -0.7608,-1.71491 -1.33572,-2.08491 -0.47998,-0.30889 -1.51868,-0.10165 -2.0712,-0.10165 m 10.00108,0 v 1.93667 h 3.13287 v 9.18355 h 2.16891 v -9.18355 h 3.19312 v -1.93667 h -8.4949 m -62.717654,1.77389 c 4.039054,-0.45017 4.469068,7.13184 0.72297,7.5763 -4.195881,0.49784 -4.69557,-7.13355 -0.72297,-7.5763 m 11.567522,0 c 2.658592,-0.29632 3.504762,2.48613 3.200702,4.72332 -0.18672,1.37384 -0.98501,2.67744 -2.41748,2.85269 -4.207086,0.51469 -4.756726,-7.13315 -0.783222,-7.57601 m 18.435732,3.28643 v -3.12365 c 0.8964,0 2.11943,-0.22019 2.952,0.17671 1.04414,0.49775 1.12019,2.05403 0.11994,2.64975 -0.84074,0.50071 -2.13994,0.29719 -3.07194,0.29719 m 9.94084,-0.37483 v -2.74882 h 2.47015 c 0.47057,4e-5 0.97429,-0.0376 1.37746,0.2622 0.70248,0.52229 0.66007,1.85176 -0.11632,2.2792 -0.45503,0.25051 -1.00579,0.19524 -1.50213,0.21089 -0.74668,0.0235 -1.48431,0.11937 -2.22916,-0.004 m -92.419678,0.0625 c 2.165226,0.35711 5.145647,-0.46195 6.084999,-2.74882 -2.261576,0 -5.04018,0.23611 -6.084999,2.74882 m 38.919916,13.86907 v 11.05776 h 8.133414 v -1.8742 h -6.024751 v -2.99871 h 5.422276 v -1.8742 h -3.976336 c -0.338723,0 -1.117564,0.14755 -1.347905,-0.17602 -0.323985,-0.45511 -0.09803,-1.70819 -0.09803,-2.26043 h 5.783761 v -1.8742 h -7.892424 m 12.953215,0 c -1.140334,3.74705 -3.113756,7.26483 -4.09683,11.05776 h 2.289405 c 0.186369,-0.62678 0.414967,-1.93057 0.904103,-2.36302 0.280351,-0.24786 0.862652,-0.13591 1.20456,-0.13591 h 3.072623 c 0.124503,0.60178 0.385924,1.17603 0.598349,1.74917 0.08693,0.23455 0.16563,0.55142 0.398442,0.67632 0.548221,0.29411 1.645341,0.0734 2.256575,0.0734 -1.019999,-2.67063 -2.067932,-5.32959 -3.096729,-7.99657 l -0.795264,-2.06162 c -0.107147,-0.27772 -0.198732,-0.71505 -0.445612,-0.89791 -0.468507,-0.347 -1.725659,-0.10166 -2.289627,-0.10166 m 7.77193,0 v 11.05776 h 2.108662 v -4.62302 c 0.540698,0 1.124795,-0.0587 1.626639,0.19105 1.119646,0.55712 1.865686,2.27347 2.530446,3.30745 0.20515,0.3191 0.40306,0.75744 0.70577,0.9886 0.53958,0.41204 1.95461,0.13592 2.60784,0.13592 -0.9638,-1.89092 -2.12849,-3.48669 -3.61485,-4.93539 0.87833,-0.10897 1.69509,-0.49129 2.22695,-1.2496 0.9241,-1.31753 0.57479,-3.4411 -0.72088,-4.35147 -0.78814,-0.55376 -1.85896,-0.5213 -2.771271,-0.5213 h -4.699306 m 9.940847,0 c 0,0.42083 -0.17541,1.40316 0.098,1.73829 0.16791,0.20579 0.57684,0.13581 0.80568,0.1359 l 2.2894,1e-5 v 9.18356 h 2.16891 v -9.18356 h 3.13288 v -1.8742 h -8.4949 m 9.94084,0 v 11.05776 h 2.10866 v -3.37356 c 0,-0.35909 -0.11896,-1.01851 0.098,-1.32333 0.2805,-0.39404 1.52323,-0.17602 1.95038,-0.17602 0.50582,0 1.64015,-0.21927 2.05941,0.10165 0.2877,0.22022 0.16975,0.88895 0.16975,1.21028 v 3.56098 h 2.10866 v -11.05776 h -2.10866 v 4.31065 h -4.27757 v -4.31065 h -2.10866 m -17.773025,1.8742 c 0.723816,-0.003 1.443256,-0.0681 2.168911,-0.0619 0.39255,0.003 0.819724,0.0155 1.204944,0.0981 0.94931,0.20355 1.34303,1.51074 0.68922,2.25433 -0.64146,0.72954 -2.11465,0.52073 -2.978619,0.52072 -0.262142,0 -0.794603,0.0992 -0.986421,-0.13591 -0.156958,-0.19236 -0.09794,-0.56883 -0.09803,-0.80119 l -8e-6,-1.87419 m -8.675641,0.74968 1.385692,4.06075 h -2.89188 c 0.439839,-1.28114 0.768847,-2.93393 1.506188,-4.06075 m -18.315244,6.30979 v 2.12409 h 2.048415 v -2.12409 z"
             id="path31438" /></g></g></clipPath><clipPath
       clipPathUnits="userSpaceOnUse"
       id="clipPath31439"><g
         id="g31441"><g
           inkscape:label="Clip"
           id="g31440"
           transform="translate(3.0652106,-0.35030978)"><path
             style="fill:#201711;stroke:none"
             d="m 63.182268,112.39895 v 84.90104 h 0.542228 v -84.90104 h -0.542228 m -13.615937,3.153 c -2.401123,0.26086 -3.406004,1.93371 -4.324672,4.03141 -1.737242,3.96687 -2.08803,10.19999 2.758236,11.94753 0.682164,0.24598 1.504872,0.40745 2.229158,0.33594 0.643201,-0.0635 1.27142,-0.17576 1.867673,-0.44226 3.120512,-1.39472 3.494356,-5.35525 3.494356,-8.40518 0,-1.3407 0.01716,-2.65661 -0.437177,-3.93581 -0.84476,-2.37846 -3.165153,-3.79479 -5.587574,-3.53163 m -13.856928,3.07235 c -3.306914,0.61985 -3.169658,4.47143 -2.962934,7.14391 0.05792,0.74876 0.170187,1.46254 0.366725,2.18656 0.483821,1.78235 1.736181,3.22226 3.680664,2.87815 1.495344,-0.26463 2.291847,-1.44004 2.828382,-2.81568 0.250673,-0.6427 0.378099,-1.31594 0.469044,-1.99914 0.359753,-2.7025 0.397264,-7.06346 -3.116684,-7.41592 -0.406843,-0.0408 -0.862009,-0.0535 -1.265197,0.0221 m -8.856385,5.67712 c -3.124733,0.38291 -3.224315,4.59897 -2.516666,7.02691 0.399934,1.37216 1.64401,2.41036 3.058894,2.2261 2.873419,-0.37421 3.498984,-4.96392 2.550742,-7.22396 -0.520319,-1.24013 -1.746002,-2.19411 -3.09297,-2.02905 m 81.876372,4.37439 c -1.02512,0.053 -2.02222,0.22807 -2.89188,0.83449 -2.65556,1.85174 -2.90611,6.76785 -0.75941,9.11828 1.08746,1.19067 2.72202,1.58789 4.25377,1.4999 1.45448,-0.0836 2.85145,-0.75453 3.72308,-1.99058 1.97423,-2.79962 1.17177,-7.88435 -2.15665,-9.13328 -0.66798,-0.25065 -1.45943,-0.36552 -2.16891,-0.32881 m 29.28029,7.46295 -2.10866,0.18742 c 0.0989,1.20236 0.58269,2.36982 1.56655,3.07042 2.07791,1.47966 6.25979,1.0051 7.00534,-1.82096 0.69914,-2.65016 -1.45854,-3.9402 -3.57135,-4.49023 -0.73859,-0.19228 -2.1914,-0.37395 -2.4631,-1.25856 -0.27016,-0.87956 0.88755,-1.22946 1.49914,-1.28595 1.13682,-0.10501 1.88319,0.48301 2.16891,1.59958 l 2.16891,-0.12495 c -0.14319,-2.60716 -2.37326,-3.45581 -4.57881,-3.31457 -1.41825,0.0908 -2.86756,0.71408 -3.2974,2.25253 -0.75265,2.6939 1.7877,3.7163 3.77938,4.2764 0.73882,0.20776 2.02558,0.38399 2.19452,1.34624 0.19848,1.13043 -1.22307,1.68659 -2.07402,1.67228 -1.26414,-0.0213 -2.01946,-0.89516 -2.28941,-2.10965 m 43.86019,-7.46295 c -1.35345,0.07 -2.6235,0.4242 -3.584,1.47844 -2.28188,2.50458 -1.92953,7.67363 1.11385,9.36624 0.93296,0.51888 2.02597,0.66809 3.07263,0.60799 1.35813,-0.078 2.69178,-0.62807 3.56737,-1.74096 2.17957,-2.77027 1.49023,-8.13189 -2.00094,-9.38512 -0.68177,-0.24473 -1.44704,-0.36394 -2.16891,-0.32659 M 74.267811,139.94962 c 1.884051,0 4.072745,0.31372 5.904256,-0.20203 3.566385,-1.00429 4.006813,-6.88299 1.884397,-9.47916 -1.118646,-1.36836 -2.810908,-1.43862 -4.414793,-1.43903 l -2.4099,-1e-5 c -0.240262,4e-5 -0.689625,-0.0802 -0.865926,0.13591 -0.156943,0.19235 -0.09794,0.56885 -0.09803,0.80119 l -7e-6,2.06162 v 8.12151 m 10.784307,-11.12023 v 11.12023 h 8.193662 v -1.8742 h -6.024751 v -2.99871 h 5.362029 v -1.87419 h -5.362029 v -2.43646 h 5.783761 v -1.93667 h -7.952672 m 9.94084,11.12023 h 2.229158 v -4.68549 h 4.458317 v -1.93667 h -4.458317 v -2.5614 h 5.121047 v -1.93667 h -5.30179 c -0.447031,0 -1.562839,-0.20936 -1.917352,0.10166 -0.187964,0.16491 -0.130828,0.54795 -0.131041,0.77298 l -2.2e-5,1.99913 v 8.24646 M 115.7181,128.82939 v 11.12023 h 2.16891 v -4.62302 c 0.53441,10e-6 1.13501,-0.0519 1.62667,0.20742 1.10705,0.58378 1.82906,2.26333 2.50769,3.29108 0.21105,0.31964 0.40706,0.76036 0.71747,0.98861 0.55722,0.40976 1.95238,0.13591 2.61887,0.13591 -0.9,-1.76568 -2.01341,-3.72768 -3.61486,-4.87291 0.84847,-0.24197 1.6197,-0.49441 2.18198,-1.24978 1.0113,-1.35859 0.609,-3.69541 -0.85654,-4.52787 -0.68245,-0.38765 -1.47772,-0.36735 -2.22915,-0.4195 -1.6992,-0.11792 -3.41775,-0.0502 -5.12104,-0.0502 m 10.78431,0 v 11.12022 h 8.13341 v -1.87419 h -5.9645 v -2.99871 h 5.36203 v -1.8742 h -5.36203 v -2.43646 h 5.78376 c 0,-0.40587 0.1906,-1.55282 -0.13106,-1.83501 -0.37044,-0.325 -1.56878,-0.10166 -2.03785,-0.10166 h -5.78376 m 19.09846,1.93667 h 3.19312 v 9.18356 h 2.16891 v -9.18356 h 3.13287 v -1.93667 h -6.14525 c -0.50195,0 -1.82447,-0.24412 -2.21859,0.10166 -0.32166,0.2822 -0.13106,1.42914 -0.13106,1.83501 m 7.71168,9.18356 c 0.58575,0 1.6693,0.21801 2.19039,-0.0734 0.22209,-0.12421 0.29272,-0.44972 0.37313,-0.67632 0.20337,-0.57308 0.44597,-1.15108 0.56935,-1.74918 h 4.33782 c 0.13702,0.59971 0.38617,1.17627 0.60254,1.74918 0.0874,0.23153 0.16482,0.55213 0.39477,0.67632 0.54592,0.29485 1.64654,0.0734 2.25606,0.0734 -1.0434,-2.73161 -2.10465,-5.45605 -3.15697,-8.18399 l -0.79527,-2.0616 c -0.0977,-0.25298 -0.18454,-0.65866 -0.43236,-0.8012 -0.38088,-0.21909 -1.97913,-0.22693 -2.25328,0.14807 -0.6581,0.90022 -0.93825,2.41366 -1.33915,3.46441 -0.59464,1.55851 -1.17018,3.12496 -1.75989,4.68549 -0.33924,0.89773 -0.76932,1.8103 -0.98714,2.74882 m 13.13396,-9.18356 v 9.18356 h 2.16891 v -9.18356 h 2.10866 c 0.26529,0 0.67751,0.0751 0.91472,-0.0734 0.3071,-0.1923 0.29834,-1.66057 -0.0439,-1.81216 -0.61276,-0.27144 -1.71354,-0.0511 -2.37703,-0.0511 -1.82469,0 -3.72143,-0.15601 -5.53872,0.008 -0.5495,0.0495 -0.66974,1.59653 -0.25604,1.85557 0.23723,0.14854 0.64941,0.0734 0.91472,0.0734 h 2.10866 m 6.62723,-1.93667 v 11.12023 h 2.16891 v -11.12027 h -2.16891 m 15.84509,0 v 11.12023 h 1.98817 v -7.12194 c 1.16882,1.58829 2.08557,3.42868 3.10654,5.1228 0.31504,0.52274 0.72672,1.64034 1.26874,1.92571 0.52782,0.27789 1.54596,0.0734 2.13145,0.0734 v -11.12023 c -0.45027,0 -1.56179,-0.2103 -1.91736,0.10166 -0.32077,0.28142 -0.13106,1.43275 -0.13106,1.83501 v 5.3727 c -1.04368,-1.68669 -2.02488,-3.41715 -3.03955,-5.1228 -0.35034,-0.58892 -0.76083,-1.71492 -1.33573,-2.08491 -0.47998,-0.3089 -1.51868,-0.10166 -2.0712,-0.10166 m -170.440196,1.47509 c -2.595193,0.44449 -3.027674,4.55206 -2.072195,6.58395 0.545976,1.16107 1.651099,1.92135 2.91566,1.71311 3.973615,-0.65438 3.490357,-9.03933 -0.843465,-8.29706 m 90.070036,0.29874 c 4.06021,-0.45929 4.52703,7.11814 0.78322,7.57607 -4.19296,0.51287 -4.73358,-7.1292 -0.78322,-7.57607 m 73.20073,6e-5 c 2.63366,-0.29353 3.46526,2.45008 3.18886,4.66085 -0.17363,1.38892 -0.94536,2.7365 -2.40565,2.91516 -4.23046,0.5176 -4.76618,-7.13209 -0.78321,-7.57601 m -105.312659,7.47214 v -7.30936 c 1.09431,0 2.611809,-0.27223 3.553243,0.43499 1.291078,0.96987 1.174076,3.3694 0.91306,4.81276 -0.107963,0.59699 -0.316674,1.22713 -0.801699,1.60717 -0.947214,0.74218 -2.551297,0.45444 -3.664604,0.45444 m 41.450289,-4.56054 v -2.74882 h 2.47015 c 0.47057,5e-5 0.97429,-0.0376 1.37746,0.2622 0.70249,0.5223 0.66006,1.85177 -0.11633,2.27921 -0.45504,0.25051 -1.00579,0.19524 -1.50212,0.21088 -0.74669,0.0235 -1.48431,0.11938 -2.22916,-0.004 m 40.72732,-2.06161 1.3857,4.12323 h -2.83164 c 0.30624,-1.34374 0.83985,-2.89347 1.44594,-4.12323 M 12.51411,181.55675 c -0.554998,0.75902 -1.200619,1.3959 -1.840457,2.07367 -0.398986,0.42264 -0.8341958,0.80756 -1.225379,1.23769 -0.9683343,1.06473 -0.6721368,2.45515 0.836678,2.65346 1.408735,0.18516 3.029252,-0.55247 4.398069,-0.84569 0.386192,-0.0827 0.907377,-0.32837 1.301885,-0.26533 0.413173,0.066 -0.0048,0.97474 -0.07569,1.2061 -0.138497,0.45208 -0.363337,1.02109 -0.212856,1.49777 0.243639,0.77178 1.546353,0.77278 2.115867,0.44253 0.836346,-0.48498 1.147327,-2.06611 1.466814,-2.93987 0.442044,-1.20894 0.966522,-3.0924 1.922883,-3.96586 0.425064,-0.38823 1.093569,-0.58428 1.614511,-0.79802 0.459213,-0.18843 0.925844,-0.35589 1.385619,-0.54256 0.149371,-0.0606 0.384939,-0.19512 0.547348,-0.11429 0.179763,0.0895 0.09844,0.39431 0.07576,0.54807 -0.07083,0.48019 -0.01893,1.06126 -0.453995,1.36076 -1.058106,0.72841 -3.348026,1.24177 -3.167414,2.94806 0.100511,0.94954 1.514231,0.0924 1.069135,1.1887 -0.414277,1.02036 -0.878014,2.02395 -1.251763,3.06106 -0.147568,0.40949 -0.316635,0.91229 0.06914,1.24148 0.941174,0.80314 1.922281,0.0893 2.696605,-0.45655 0.722141,-0.50908 1.656349,-0.80084 2.463678,-1.13446 0.309342,-0.12782 0.68329,-0.38105 1.023649,-0.37915 0.336326,0.002 0.566468,0.3598 0.758185,0.60045 0.503234,0.63169 0.913604,1.42198 1.487335,1.98268 0.421504,0.41193 1.427637,0.51768 1.875292,0.0819 0.28519,-0.2776 0.284581,-0.72632 0.104742,-1.06175 -0.402003,-0.74979 -0.982209,-1.41558 -1.448038,-2.12436 -0.138078,-0.21009 -0.433963,-0.52211 -0.387835,-0.79917 0.07277,-0.43709 0.955266,-0.75915 1.285976,-0.95471 0.292023,-0.17268 0.623829,-0.46009 0.959941,-0.52295 0.490967,-0.0918 0.988418,0.98382 1.208517,1.34 0.506434,0.81957 1.034508,1.62675 1.555742,2.43646 0.415066,0.64477 0.848496,1.28782 1.698058,1.20309 1.954132,-0.19489 0.25685,-2.28587 1.8e-5,-3.20223 0.636629,0.25726 1.570102,0.5483 2.102669,0.98287 0.445675,0.36368 0.648091,0.99928 1.152936,1.28718 0.60163,0.3431 1.392003,0.30725 2.046176,0.47141 0.58563,0.14696 1.788948,0.58773 2.179012,-0.13386 0.313196,-0.57938 -0.36635,-1.09824 -0.793337,-1.32458 -0.759595,-0.40263 -1.75818,-0.35525 -2.464357,-0.80805 -0.422214,-0.27073 -0.631481,-0.79341 -0.979584,-1.14749 -0.474449,-0.48259 -1.098374,-0.7943 -1.677079,-1.11913 -0.61543,-0.34543 -1.378666,-0.66858 -1.920302,-1.1242 -0.66669,-0.56082 -1.189333,-1.43535 -1.695788,-2.14795 -0.366972,-0.51633 -0.840101,-1.06971 -1.043631,-1.6833 -0.173675,-0.52358 -0.09983,-1.14154 -0.09983,-1.68678 v -3.18613 c 0,-3.41308 0.01234,-6.8433 -0.24099,-10.2456 -0.393127,0.40167 -0.317368,1.15414 -0.393061,1.68677 -0.17927,1.26148 -0.148365,3.10538 -0.886268,4.17681 -0.615779,0.89412 -1.522789,0.33926 -1.724852,-0.55336 -0.412622,-1.82278 -0.03391,-3.74592 -0.490175,-5.56011 h -0.06025 c -0.23737,1.54746 -0.120495,3.18528 -0.120495,4.74796 0,2.26881 -0.06025,4.53833 -0.06025,6.80957 0,1.39175 0.214298,3.01189 -0.100011,4.37313 -0.172025,0.74502 -0.825985,1.49505 -1.231321,2.12408 -0.502536,0.77988 -0.97255,1.93785 -1.655134,2.55171 -0.462402,0.41585 -1.478141,0.75726 -2.074325,0.88431 l 1.827757,-3.49849 0.942141,-1.93667 0.06173,-1.56183 v -2.87376 l -0.115104,-6.87205 -0.125886,-2.74882 h -0.06025 c -0.795761,3.08352 -1.320799,6.65763 -3.855858,8.82575 -0.830497,0.71029 -1.850261,1.08602 -2.831616,1.50788 -0.431639,0.18556 -1.003882,0.28809 -1.343206,0.63739 -1.094057,1.12622 -1.434371,2.94639 -2.452961,4.10617 -0.297744,0.33901 -0.917759,0.3871 -1.324872,0.50206 -1.129464,0.31895 -2.328801,0.87026 -3.494355,0.97614 0.801527,-1.33929 2.403279,-1.93878 3.307757,-3.13594 0.977671,-1.29404 1.158409,-3.19517 2.255965,-4.41206 0.456205,-0.50581 1.113352,-0.72163 1.665714,-1.08247 0.759472,-0.49614 1.304274,-1.27623 1.524435,-2.17739 0.507715,-2.07817 0.102513,-4.5543 0.102513,-6.68463 0,-4.55584 -0.0086,-9.12654 0.01147,-13.68163 0.0088,-2.0022 -0.273973,-4.22787 0.208724,-6.18484 0.734682,-2.97857 3.859279,-5.55978 6.527526,-6.62216 -0.549052,0.54324 -1.184903,0.98955 -1.704878,1.56658 -1.670209,1.85344 -2.703975,4.05185 -2.69292,6.61741 0.0027,0.62302 0.05457,1.27799 0.236532,1.87419 0.108693,0.35615 0.406317,0.8029 0.389812,1.17848 -0.01748,0.39777 -0.354614,0.71875 -0.377348,1.15001 -0.154618,2.9331 -0.0083,5.9164 -0.0083,8.85421 v 5.87248 c 7e-6,0.65766 -0.06369,1.67714 0.783824,1.79211 1.514208,0.20542 1.144096,-2.48336 1.144096,-3.41641 v -11.80743 c 0.929178,0.66242 1.647888,1.63374 2.590643,2.31198 0.363986,0.26186 1.010812,0.46926 1.161346,0.9401 0.1132,0.35407 0.0436,0.81472 0.0436,1.18351 l 1.17e-4,2.43646 c 0.0016,0.66267 0.07023,1.35438 0.723257,1.67561 0.513128,0.25241 1.136521,-0.0702 1.3207,-0.61428 0.269917,-0.79735 0.08323,-2.04086 0.02072,-2.87305 -0.02085,-0.27752 -0.09838,-0.77066 0.08166,-1.00627 0.245143,-0.32082 1.472387,0.13918 1.829886,0.18917 0.364213,0.0509 1.115866,-0.0647 1.37512,0.24344 0.309622,0.36799 0.131067,1.36284 0.131067,1.82312 v 5.06033 c 0,1.14318 -0.206115,2.59288 0.166461,3.68591 0.345029,1.01223 1.356488,1.83297 1.449323,2.93624 0.174252,2.07083 0.0109,4.23056 0.0109,6.30979 0,1.00529 -0.147066,2.13674 0.307651,3.06119 0.687831,1.39837 1.776033,2.59808 2.79838,3.73607 0.759694,0.84563 1.58096,1.77254 2.557235,2.35469 0.591473,0.35271 1.286809,0.52943 1.927921,0.76049 0.950435,0.34253 3.058966,0.83444 3.800653,-0.18368 0.46166,-0.63373 -0.398993,-1.05243 -0.848525,-1.24882 -0.891258,-0.38939 -1.807356,-0.6881 -2.711138,-1.04 -0.363144,-0.14139 -0.811227,-0.22174 -1.126821,-0.46152 -0.424678,-0.32267 -0.629668,-0.89533 -0.981842,-1.29336 1.454515,-0.92414 2.638557,-0.32208 4.096831,0.15092 0.869536,0.28203 1.8048,0.47117 2.711138,0.55268 0.811139,0.0729 1.931767,0.22374 2.572944,-0.42035 0.432695,-0.43466 0.282098,-0.9902 -0.168214,-1.33705 -0.788064,-0.607 -1.880664,-0.87992 -2.766215,-1.30975 -1.163813,-0.56488 -2.320125,-1.16504 -3.313613,-2.02183 -3.220003,-2.77696 -5.049679,-7.21844 -5.460656,-11.4828 -0.350714,-3.63908 -0.09726,-7.24265 2.019627,-10.30808 1.874233,-2.71404 4.725815,-4.31438 6.918741,-6.69022 2.378174,-2.57652 3.429975,-5.90296 3.32691,-9.42786 -0.104175,-3.5629 -2.158404,-6.36515 -5.358682,-7.61175 -0.944232,-0.36781 -1.960438,-0.45669 -2.952128,-0.58902 -1.653144,-0.22059 -3.244088,0.0732 -4.880049,0.29159 -2.840734,0.37921 -5.633177,1.28328 -8.314157,2.30973 -2.242381,0.85852 -4.46521,1.79645 -6.506731,3.10259 -1.440952,0.92191 -2.812328,2.09491 -3.88271,3.46191 -2.421962,3.09312 -2.322784,6.64587 -2.322784,10.40507 v 9.74582 c 0,2.49232 0.214129,5.07089 -0.443512,7.49678 -0.31768,1.17184 -0.846813,2.19801 -1.424865,3.2486 -0.585903,1.06486 -1.300612,2.01958 -2.082633,2.93624 -0.291798,0.34203 -0.622596,0.83603 -1.051493,0.99712 -0.763337,0.28671 -1.835686,-0.1108 -2.6489303,-0.0471 -0.9885778,0.0774 -1.6305223,0.62211 -2.4099005,1.19463 -0.8113029,0.59598 -1.651229,0.99254 -2.5296537,1.45353 -0.3082453,0.16177 -0.6000347,0.44842 -0.5710748,0.8363 0.048671,0.65188 0.8412293,0.89398 1.3535506,0.99303 1.0646805,0.20584 2.0146434,0.0117 2.9521281,-0.55318 0.4762905,-0.287 1.0188316,-0.88195 1.5664353,-0.97319 0.3491913,-0.0582 0.6888973,0.10486 1.0242073,0.17758 0.559357,0.12132 1.129454,0.16815 1.68693,0.2944 m 30.786479,-39.23315 -2.65089,1.50842 -4.337821,2.65697 -1.927921,1.54885 -1.325445,1.03286 c 0.03712,-2.10896 0.970072,-3.74713 1.566435,-5.68506 -1.638517,0.98666 -2.874222,3.3095 -3.264625,5.18528 -0.1437,0.69043 0.0233,1.50487 -0.211802,2.16752 -0.13154,0.37077 -0.631038,0.63145 -0.898118,0.89698 -0.545397,0.54224 -1.087546,1.08465 -1.576178,1.68346 -0.201491,0.24692 -0.380584,0.68129 -0.650913,0.84748 -0.2145,0.13187 -0.399943,-0.0727 -0.528291,-0.233 -0.335649,-0.41927 -0.597401,-0.92741 -0.803255,-1.42663 -0.749996,-1.81883 -0.470242,-3.7615 0.392662,-5.49764 2.032221,-4.08878 6.261004,-6.17036 10.432401,-7.07992 1.508942,-0.32901 3.059992,-0.3459 4.578811,-0.58934 1.273788,-0.20417 2.552264,-0.38691 3.795593,-0.75726 0.27107,-0.0807 0.984373,-0.55412 1.240495,-0.33561 0.235433,0.20085 -0.01679,0.99368 -0.04424,1.26535 -0.128934,1.27578 -0.392793,2.54576 -0.592366,3.81086 -0.839567,5.32209 -3.127837,12.10661 -8.978288,13.25088 -1.902614,0.37212 -3.971765,0.19305 -5.844009,-0.30337 -0.367065,-0.0973 -1.837453,-0.32349 -1.71922,-0.89594 0.0725,-0.35102 0.45364,-0.63587 0.679396,-0.88322 0.569371,-0.62385 1.135237,-1.25076 1.71443,-1.86486 2.463402,-2.61188 5.183943,-4.77605 7.880541,-7.1066 0.766748,-0.66266 1.513954,-1.34496 2.228033,-2.06832 0.334707,-0.33906 0.732101,-0.63716 0.84459,-1.12814 m -10.181829,1.93667 0.06025,0.0625 -0.06025,-0.0625 m 54.885484,2.97007 c -0.975272,0.0505 -1.932885,0.21186 -2.771386,0.76625 -2.602175,1.72046 -3.056487,6.46487 -1.112645,8.88321 1.116756,1.38936 2.7895,1.90069 4.486506,1.80321 1.47093,-0.0845 2.860175,-0.73672 3.741494,-1.9907 1.994676,-2.83814 1.157874,-7.94328 -2.235306,-9.15528 -0.655736,-0.23422 -1.415449,-0.34257 -2.108663,-0.30669 m 11.567522,0 c -1.256725,0.065 -2.43292,0.36828 -3.372735,1.28787 -2.206499,2.15898 -2.282831,6.85468 0.06022,8.95701 1.093376,0.98105 2.564233,1.29065 3.975244,1.20772 1.42288,-0.0836 2.79386,-0.73104 3.65904,-1.92804 1.91267,-2.64623 1.34646,-7.58461 -1.73113,-9.03182 -0.79055,-0.37176 -1.72402,-0.53759 -2.590637,-0.49274 m -25.243708,0.15359 v 11.12022 h 2.168911 v -4.68549 h 4.458316 v -1.93666 h -4.458316 v -2.56141 h 5.181286 v -1.93666 h -7.350197 m 31.509445,0 v 1.93666 h 3.19312 v 9.18356 h 2.16891 v -9.18356 h 3.13287 v -1.93666 h -8.4949 m 9.88059,0 v 11.12022 h 2.16891 v -4.1857 c 1.42436,0 3.2361,0.26606 4.51852,-0.5096 1.93909,-1.17284 2.07249,-4.54854 0.17883,-5.84465 -0.73129,-0.50053 -1.56976,-0.4872 -2.40794,-0.52339 -1.48554,-0.0641 -2.97032,-0.0569 -4.45832,-0.0569 m 9.94084,0 v 11.12022 h 2.16891 v -4.62301 c 0.53442,1e-5 1.13501,-0.0519 1.62667,0.20741 1.10703,0.58378 1.82908,2.26333 2.50769,3.29109 0.21104,0.31962 0.40708,0.76036 0.71747,0.98861 0.55721,0.40976 1.95239,0.1359 2.61886,0.1359 -0.9,-1.76569 -2.0134,-3.72766 -3.61485,-4.8729 0.84847,-0.24198 1.61972,-0.49441 2.18198,-1.24979 1.01127,-1.35859 0.60902,-3.69539 -0.85653,-4.52787 -0.68246,-0.38766 -1.47771,-0.36735 -2.22916,-0.4195 -1.6992,-0.11792 -3.41775,-0.0502 -5.12104,-0.0502 m 10.72406,0 v 11.12023 h 2.16891 v -11.12021 h -2.16891 m 4.21733,0 v 11.12022 h 1.98816 v -7.12194 c 1.16896,1.58848 2.08549,3.42854 3.10655,5.1228 0.31502,0.52273 0.72673,1.64036 1.26874,1.92571 0.52781,0.27789 1.54596,0.0734 2.13145,0.0734 v -11.12022 c -0.45027,0 -1.56178,-0.21031 -1.91736,0.10165 -0.32078,0.28142 -0.13106,1.43275 -0.13106,1.83502 v 5.37269 c -1.04368,-1.68669 -2.02488,-3.41715 -3.03956,-5.1228 -0.35033,-0.58893 -0.7608,-1.71491 -1.33572,-2.08491 -0.47998,-0.30889 -1.51868,-0.10165 -2.0712,-0.10165 m 10.00108,0 v 1.93667 h 3.13287 v 9.18355 h 2.16891 v -9.18355 h 3.19312 v -1.93667 h -8.4949 m -62.717654,1.77389 c 4.039054,-0.45017 4.469068,7.13184 0.72297,7.5763 -4.195881,0.49784 -4.69557,-7.13355 -0.72297,-7.5763 m 11.567522,0 c 2.658592,-0.29632 3.504762,2.48613 3.200702,4.72332 -0.18672,1.37384 -0.98501,2.67744 -2.41748,2.85269 -4.207086,0.51469 -4.756726,-7.13315 -0.783222,-7.57601 m 18.435732,3.28643 v -3.12365 c 0.8964,0 2.11943,-0.22019 2.952,0.17671 1.04414,0.49775 1.12019,2.05403 0.11994,2.64975 -0.84074,0.50071 -2.13994,0.29719 -3.07194,0.29719 m 9.94084,-0.37483 v -2.74882 h 2.47015 c 0.47057,4e-5 0.97429,-0.0376 1.37746,0.2622 0.70248,0.52229 0.66007,1.85176 -0.11632,2.2792 -0.45503,0.25051 -1.00579,0.19524 -1.50213,0.21089 -0.74668,0.0235 -1.48431,0.11937 -2.22916,-0.004 m -92.419678,0.0625 c 2.165226,0.35711 5.145647,-0.46195 6.084999,-2.74882 -2.261576,0 -5.04018,0.23611 -6.084999,2.74882 m 38.919916,13.86907 v 11.05776 h 8.133414 v -1.8742 h -6.024751 v -2.99871 h 5.422276 v -1.8742 h -3.976336 c -0.338723,0 -1.117564,0.14755 -1.347905,-0.17602 -0.323985,-0.45511 -0.09803,-1.70819 -0.09803,-2.26043 h 5.783761 v -1.8742 h -7.892424 m 12.953215,0 c -1.140334,3.74705 -3.113756,7.26483 -4.09683,11.05776 h 2.289405 c 0.186369,-0.62678 0.414967,-1.93057 0.904103,-2.36302 0.280351,-0.24786 0.862652,-0.13591 1.20456,-0.13591 h 3.072623 c 0.124503,0.60178 0.385924,1.17603 0.598349,1.74917 0.08693,0.23455 0.16563,0.55142 0.398442,0.67632 0.548221,0.29411 1.645341,0.0734 2.256575,0.0734 -1.019999,-2.67063 -2.067932,-5.32959 -3.096729,-7.99657 l -0.795264,-2.06162 c -0.107147,-0.27772 -0.198732,-0.71505 -0.445612,-0.89791 -0.468507,-0.347 -1.725659,-0.10166 -2.289627,-0.10166 m 7.77193,0 v 11.05776 h 2.108662 v -4.62302 c 0.540698,0 1.124795,-0.0587 1.626639,0.19105 1.119646,0.55712 1.865686,2.27347 2.530446,3.30745 0.20515,0.3191 0.40306,0.75744 0.70577,0.9886 0.53958,0.41204 1.95461,0.13592 2.60784,0.13592 -0.9638,-1.89092 -2.12849,-3.48669 -3.61485,-4.93539 0.87833,-0.10897 1.69509,-0.49129 2.22695,-1.2496 0.9241,-1.31753 0.57479,-3.4411 -0.72088,-4.35147 -0.78814,-0.55376 -1.85896,-0.5213 -2.771271,-0.5213 h -4.699306 m 9.940847,0 c 0,0.42083 -0.17541,1.40316 0.098,1.73829 0.16791,0.20579 0.57684,0.13581 0.80568,0.1359 l 2.2894,1e-5 v 9.18356 h 2.16891 v -9.18356 h 3.13288 v -1.8742 h -8.4949 m 9.94084,0 v 11.05776 h 2.10866 v -3.37356 c 0,-0.35909 -0.11896,-1.01851 0.098,-1.32333 0.2805,-0.39404 1.52323,-0.17602 1.95038,-0.17602 0.50582,0 1.64015,-0.21927 2.05941,0.10165 0.2877,0.22022 0.16975,0.88895 0.16975,1.21028 v 3.56098 h 2.10866 v -11.05776 h -2.10866 v 4.31065 h -4.27757 v -4.31065 h -2.10866 m -17.773025,1.8742 c 0.723816,-0.003 1.443256,-0.0681 2.168911,-0.0619 0.39255,0.003 0.819724,0.0155 1.204944,0.0981 0.94931,0.20355 1.34303,1.51074 0.68922,2.25433 -0.64146,0.72954 -2.11465,0.52073 -2.978619,0.52072 -0.262142,0 -0.794603,0.0992 -0.986421,-0.13591 -0.156958,-0.19236 -0.09794,-0.56883 -0.09803,-0.80119 l -8e-6,-1.87419 m -8.675641,0.74968 1.385692,4.06075 h -2.89188 c 0.439839,-1.28114 0.768847,-2.93393 1.506188,-4.06075 m -18.315244,6.30979 v 2.12409 h 2.048415 v -2.12409 z"
             id="path31439" /></g></g></clipPath></defs><g
     inkscape:label="Layer 1"
     inkscape:groupmode="layer"
     id="layer1"><path
       style="fill:#020202;stroke:none"
       d="m 41.000374,128.97124 h 0.10657 c 1.32488,-3.35094 5.12196,-6.26601 8.31227,-7.98538 v -0.10108 c -3.01523,0.91136 -4.96985,3.13414 -7.2466,5.05404 0.29487,-1.75833 0.17118,-3.43004 1.11166,-5.05404 2.64679,-4.57038 9.19841,-5.43049 14.1275,-4.64971 -0.87955,4.28243 -3.84465,8.48518 -8.09913,10.31635 -1.19095,0.51259 -2.43651,0.84217 -3.72986,1.01764 -0.70589,0.0958 -1.69722,0.0176 -2.225,0.54718 -0.80594,0.80868 -1.24477,2.2281 -1.54133,3.28094 -0.9697,3.44254 -0.27644,6.36728 -0.0701,9.80483 11.41154,0.25438 21.74524,8.57958 25.32634,18.59885 0.73768,2.0639 1.30382,4.20624 1.60111,6.36809 0.0945,0.68741 0.39532,1.80568 0.14561,2.47185 -0.20604,0.54968 -1.34581,0.3584 -1.81656,0.35841 -1.55124,2e-5 -2.81483,0.2027 -2.87732,-1.61729 l 1.38538,0.40432 c 0,-1.17952 0.17894,-2.60274 -0.23295,-3.73553 -0.20002,-0.55008 -0.83122,-1.03213 -1.47156,-0.89247 -0.88265,0.19251 -1.08346,1.09717 -1.59422,1.66791 -0.21635,0.24176 -0.62414,0.51703 -0.9244,0.22482 -0.40667,-0.39578 -0.078,-1.13635 -0.0818,-1.6112 -0.005,-0.61093 -0.3331,-1.14061 -0.70727,-1.61729 -1.02936,-1.31137 -2.37424,-3.42791 -3.83401,-4.30035 -0.96161,-0.57472 -2.27544,-0.0883 -3.15125,-0.83506 -0.74322,-0.63365 0.2671,-1.52976 -0.20506,-1.98816 -0.73041,-0.7091 -2.45284,1.53888 -3.27528,0.20861 -0.58936,-0.95326 0.78472,-2.90176 0.97436,-3.90068 0.0839,-0.44179 -0.13862,-1.05233 0.22089,-1.40778 0.47535,-0.46999 2.43915,-0.25565 2.19298,-1.37512 -0.11622,-0.52854 -1.11167,-0.92129 -1.55111,-1.1684 -1.65334,-0.92969 -3.44993,-1.70339 -5.32838,-2.11355 0.72607,1.15628 1.12228,2.38027 0.9179,3.73996 -0.088,0.58565 -0.41258,1.30963 -1.13345,1.34759 -1.10728,0.0583 -1.8721,-1.57304 -2.76842,-2.04797 -1.26126,-0.6683 -2.7847,-0.8537 -4.04827,-1.53049 -0.72315,-0.38733 -1.08699,-1.27901 -1.92408,-1.45146 -1.45015,-0.29875 -3.16785,0.12797 -4.57776,0.43883 -0.70517,0.15549 -2.74785,0.32021 -3.099,0.99996 -0.25012,0.4842 0.49687,1.10695 0.77534,1.43493 0.65147,0.76728 1.18603,1.73398 0.7384,2.7242 -0.42773,0.94619 -1.29889,0.70196 -2.16396,0.82087 -0.38922,0.0535 -0.89278,0.25081 -0.8465,0.70372 0.0793,0.77594 1.27915,0.67994 1.82497,0.93952 0.84191,0.40041 1.44162,1.17835 2.13135,1.76453 1.1042,0.93842 2.55013,1.28475 1.17224,2.75091 0.70582,0.22947 1.74609,-0.0947 2.29685,0.36306 1.13121,0.94015 0.80911,3.19211 -0.91157,3.21642 -2.37572,0.0336 -2.89865,-2.72931 -4.90202,-3.10706 -1.31338,-0.24764 -3.26632,1.43308 -2.98388,2.66108 -0.22143,-0.0354 -0.43161,-0.0634 -0.62895,-0.17417 -1.97014,-1.10568 1.40577,-2.50897 1.48149,-3.56582 -1.05485,0.3932 -1.91439,1.17537 -2.45128,2.1227 -0.29567,0.5217 -0.42011,1.33144 -0.92735,1.71227 -1.07465,0.80686 -0.52351,-1.67089 -1.40456,-1.47464 -0.62884,0.14008 -0.86629,1.32964 -1.32673,1.73032 -0.65542,0.57037 -1.47558,0.22849 -2.15372,0.63222 -0.62263,0.37068 -0.54917,1.33021 -0.005,1.72767 0.829,0.60548 2.0222,-0.0413 2.94025,-0.0704 1.00374,-0.0318 1.55547,0.74294 2.45105,0.80544 1.22882,0.0858 3.72521,-1.85033 3.3036,-3.04127 2.32592,0.002 5.08113,0.27857 7.03146,1.61352 0.77973,0.5337 1.31504,1.35193 1.94923,2.02539 1.20989,1.2848 2.05037,2.50914 2.31547,4.24539 h -21.9529 l 1.49194,-3.53783 c -1.67108,0.61073 -1.26893,2.57477 -2.63152,3.37335 -0.5199,0.30469 -1.36639,0.16448 -1.95088,0.16448 h -4.5824 c 0.0642,-14.54843 12.4592,-26.99626 27.81413,-27.7972 0.14654,-1.31869 0.34766,-2.62326 0.0713,-3.94215 -0.72352,-3.45256 -3.82645,-6.7693 -7.21131,-8.08646 v 0.10108 c 1.94599,0.98817 4.07996,2.81714 4.79554,4.85188 -5.58526,0 -10.68139,-2.77196 -12.4684,-8.08646 3.98919,-1.50238 9.70154,-1.29374 12.56297,2.12453 1.12308,1.34164 1.17587,2.72401 1.76726,4.24355 0.34971,0.89857 1.10734,1.65848 1.54833,2.52702 h 0.10657 c 0.002,-1.99743 0.54357,-3.96641 0.52345,-5.96376 -0.0404,-4.01395 -1.70569,-8.08393 -4.67958,-10.91672 1.36495,2.18484 2.96066,4.47218 3.19702,7.07565 -1.18946,-0.31056 -2.34188,-0.68177 -3.41016,-1.27922 -4.65717,-2.60456 -6.18092,-7.20247 -6.18092,-12.06344 4.61367,0.10335 10.13927,2.60471 11.70354,6.97457 0.65661,1.8343 0.097,3.32665 0.15474,5.15512 0.0527,1.67 0.61873,3.36443 0.71669,5.05404 m -6.28748,-11.0178 0.10657,0.10108 -0.10657,-0.10108 m 14.81289,2.86395 -0.0355,0.0337 c 0.0526,0.0166 0.11793,-0.0337 0.0355,-0.0337 m -15.55886,29.3808 c 0.66254,0.68721 0.41787,2.11576 0.41316,3.03214 -0.002,0.33547 -0.0282,0.82595 -0.38414,1.00896 -1.48646,0.76435 -1.28032,-1.82556 -0.93975,-2.42381 0.30767,-0.54045 0.62109,-1.06751 0.91073,-1.61729 m 2.01569,2.44445 c 0.8034,0.19917 0.83831,1.46084 -0.10277,1.26208 -1.01852,-0.21513 -1.04929,-1.5477 0.10277,-1.26208 m -14.8038,7.36038 c 0.2885,-0.19888 0.49835,-0.39163 0.63222,-0.7143 0.78355,-1.8886 -1.59545,-1.90552 -2.6943,-1.0276 -0.23438,0.18725 -1.04213,0.65066 -0.7594,1.02285 0.58231,0.76657 2.05404,-0.23063 2.82148,0.71905 m -7.14003,4.95296 c -0.36393,0.19319 -1.22883,1.04645 -0.80884,1.48264 0.45479,0.47235 0.87306,-0.46689 0.88847,-0.77132 0.0122,-0.24113 -0.0352,-0.47548 -0.0796,-0.71132 z"
       id="path31450"
       inkscape:export-filename="thumbnail.png"
       inkscape:export-xdpi="200"
       inkscape:export-ydpi="200" /><g
       id="g31449"
       transform="translate(2.9934187,-104.76965)"
       inkscape:export-filename="deduce.png"
       inkscape:export-xdpi="200"
       inkscape:export-ydpi="200"><path
         style="fill:#79bd2e;fill-opacity:1;fill-rule:evenodd;stroke:#79bd2e;stroke-width:0.0343749;stroke-linecap:square;stroke-dasharray:none;stroke-opacity:1;paint-order:markers stroke fill"
         d="m 37.438541,156.37905 c -0.389033,-0.0293 -1.099055,-0.11928 -1.511384,-0.1915 -0.517234,-0.0906 -1.663171,-0.35473 -1.663438,-0.38341 -2.65e-4,-0.0325 0.693494,-0.54245 1.074692,-0.78997 0.72616,-0.4715 1.4365,-0.7667 2.468319,-1.02576 0.687287,-0.17255 1.285409,-0.28319 2.773738,-0.51309 1.349682,-0.20848 1.822821,-0.3024 2.258304,-0.4483 0.163631,-0.0548 0.304106,-0.0931 0.312168,-0.085 0.02146,0.0214 -0.456237,0.52838 -0.83593,0.88711 -1.54686,1.46144 -2.117664,1.83665 -3.692818,2.42744 -0.368991,0.1384 -0.402625,0.145 -0.711068,0.13949 -0.178065,-0.003 -0.390729,-0.0108 -0.472583,-0.017 z"
         id="path31449" /><path
         style="fill:#00221c;fill-opacity:1;stroke:none"
         d="m 52.631542,115.20164 c -2.401123,0.26086 -3.406004,1.93371 -4.324672,4.03141 -1.737242,3.96687 -2.08803,10.19999 2.758236,11.94753 0.682164,0.24598 1.504872,0.40745 2.229158,0.33594 0.643201,-0.0635 1.27142,-0.17576 1.867673,-0.44226 3.120512,-1.39472 3.494356,-5.35525 3.494356,-8.40518 0,-1.3407 0.01716,-2.65661 -0.437177,-3.93581 -0.84476,-2.37846 -3.165153,-3.79479 -5.587574,-3.53163 m -13.856928,3.07235 c -3.306914,0.61985 -3.169658,4.47143 -2.962934,7.14391 0.05792,0.74876 0.170187,1.46254 0.366725,2.18656 0.483821,1.78235 1.736181,3.22226 3.680664,2.87815 1.495344,-0.26463 2.291847,-1.44004 2.828382,-2.81568 0.250673,-0.6427 0.378099,-1.31594 0.469044,-1.99914 0.359753,-2.7025 0.397264,-7.06346 -3.116684,-7.41592 -0.406843,-0.0408 -0.862009,-0.0535 -1.265197,0.0221 m -8.856385,5.67712 c -3.124733,0.38291 -3.224315,4.59897 -2.516666,7.02691 0.399934,1.37216 1.64401,2.41036 3.058894,2.2261 2.873419,-0.37421 3.498984,-4.96392 2.550742,-7.22396 -0.520319,-1.24013 -1.746002,-2.19411 -3.09297,-2.02905 m -8.374404,6.00328 c -2.595193,0.44449 -3.027674,4.55206 -2.072195,6.58395 0.545976,1.16107 1.651099,1.92135 2.91566,1.71311 3.973615,-0.65438 3.490357,-9.03933 -0.843465,-8.29706 m -5.964504,51.25207 c -0.554998,0.75902 -1.200619,1.3959 -1.840457,2.07367 -0.398986,0.42264 -0.834196,0.80756 -1.225379,1.23769 -0.968335,1.06473 -0.672137,2.45515 0.836678,2.65346 1.408735,0.18516 3.029252,-0.55247 4.398069,-0.84569 0.386192,-0.0827 0.907377,-0.32837 1.301885,-0.26533 0.413173,0.066 -0.0048,0.97474 -0.07569,1.2061 -0.138497,0.45208 -0.363337,1.02109 -0.212856,1.49777 0.243639,0.77178 1.546353,0.77278 2.115867,0.44253 0.836346,-0.48498 1.147327,-2.06611 1.466814,-2.93987 0.442044,-1.20894 0.966522,-3.0924 1.922883,-3.96586 0.425064,-0.38823 1.093569,-0.58428 1.614511,-0.79802 0.459213,-0.18843 0.925844,-0.35589 1.385619,-0.54256 0.149371,-0.0606 0.384939,-0.19512 0.547348,-0.11429 0.179763,0.0895 0.09844,0.39431 0.07576,0.54807 -0.07083,0.48019 -0.01893,1.06126 -0.453995,1.36076 -1.058106,0.72841 -3.348026,1.24177 -3.167414,2.94806 0.100511,0.94954 1.514231,0.0924 1.069135,1.1887 -0.414277,1.02036 -0.878014,2.02395 -1.251763,3.06106 -0.147568,0.40949 -0.316635,0.91229 0.06914,1.24148 0.941174,0.80314 1.922281,0.0893 2.696605,-0.45655 0.722141,-0.50908 1.656349,-0.80084 2.463678,-1.13446 0.309342,-0.12782 0.68329,-0.38105 1.023649,-0.37915 0.336326,0.002 0.566468,0.3598 0.758185,0.60045 0.503234,0.63169 0.913604,1.42198 1.487335,1.98268 0.421504,0.41193 1.427637,0.51768 1.875292,0.0819 0.28519,-0.2776 0.284581,-0.72632 0.104742,-1.06175 -0.402003,-0.74979 -0.982209,-1.41558 -1.448038,-2.12436 -0.138078,-0.21009 -0.433963,-0.52211 -0.387835,-0.79917 0.07277,-0.43709 0.955266,-0.75915 1.285976,-0.95471 0.292023,-0.17268 0.623829,-0.46009 0.959941,-0.52295 0.490967,-0.0918 0.988418,0.98382 1.208517,1.34 0.506434,0.81957 1.034508,1.62675 1.555742,2.43646 0.415066,0.64477 0.848496,1.28782 1.698058,1.20309 1.954132,-0.19489 0.25685,-2.28587 1.8e-5,-3.20223 0.636629,0.25726 1.570102,0.5483 2.102669,0.98287 0.445675,0.36368 0.648091,0.99928 1.152936,1.28718 0.60163,0.3431 1.392003,0.30725 2.046176,0.47141 0.58563,0.14696 1.788948,0.58773 2.179012,-0.13386 0.313196,-0.57938 -0.36635,-1.09824 -0.793337,-1.32458 -0.759595,-0.40263 -1.75818,-0.35525 -2.464357,-0.80805 -0.422214,-0.27073 -0.631481,-0.79341 -0.979584,-1.14749 -0.474449,-0.48259 -1.098374,-0.7943 -1.677079,-1.11913 -0.61543,-0.34543 -1.378666,-0.66858 -1.920302,-1.1242 -0.66669,-0.56082 -1.189333,-1.43535 -1.695788,-2.14795 -0.366972,-0.51633 -0.840101,-1.06971 -1.043631,-1.6833 -0.173675,-0.52358 -0.09983,-1.14154 -0.09983,-1.68678 v -3.18613 c 0,-3.41308 0.01234,-6.8433 -0.24099,-10.2456 -0.393127,0.40167 -0.317368,1.15414 -0.393061,1.68677 -0.17927,1.26148 -0.148365,3.10538 -0.886268,4.17681 -0.615779,0.89412 -1.522789,0.33926 -1.724852,-0.55336 -0.412622,-1.82278 -0.03391,-3.74592 -0.490175,-5.56011 h -0.06025 c -0.23737,1.54746 -0.120495,3.18528 -0.120495,4.74796 0,2.26881 -0.06025,4.53833 -0.06025,6.80957 0,1.39175 0.214298,3.01189 -0.100011,4.37313 -0.172025,0.74502 -0.825985,1.49505 -1.231321,2.12408 -0.502536,0.77988 -0.97255,1.93785 -1.655134,2.55171 -0.462402,0.41585 -1.478141,0.75726 -2.074325,0.88431 l 1.827757,-3.49849 0.942141,-1.93667 0.06173,-1.56183 v -2.87376 l -0.115104,-6.87205 -0.125886,-2.74882 h -0.06025 c -0.795761,3.08352 -1.320799,6.65763 -3.855858,8.82575 -0.830497,0.71029 -1.850261,1.08602 -2.831616,1.50788 -0.431639,0.18556 -1.003882,0.28809 -1.343206,0.63739 -1.094057,1.12622 -1.434371,2.94639 -2.452961,4.10617 -0.297744,0.33901 -0.917759,0.3871 -1.324872,0.50206 -1.129464,0.31895 -2.328801,0.87026 -3.494355,0.97614 0.801527,-1.33929 2.403279,-1.93878 3.307757,-3.13594 0.977671,-1.29404 1.158409,-3.19517 2.255965,-4.41206 0.456205,-0.50581 1.113352,-0.72163 1.665714,-1.08247 0.759472,-0.49614 1.304274,-1.27623 1.524435,-2.17739 0.507715,-2.07817 0.102513,-4.5543 0.102513,-6.68463 0,-4.55584 -0.0086,-9.12654 0.01147,-13.68163 0.0088,-2.0022 -0.273973,-4.22787 0.208724,-6.18484 0.734682,-2.97857 3.859279,-5.55978 6.527526,-6.62216 -0.549052,0.54324 -1.184903,0.98955 -1.704878,1.56658 -1.670209,1.85344 -2.703975,4.05185 -2.69292,6.61741 0.0027,0.62302 0.05457,1.27799 0.236532,1.87419 0.108693,0.35615 0.406317,0.8029 0.389812,1.17848 -0.01748,0.39777 -0.354614,0.71875 -0.377348,1.15001 -0.154618,2.9331 -0.0083,5.9164 -0.0083,8.85421 v 5.87248 c 7e-6,0.65766 -0.06369,1.67714 0.783824,1.79211 1.514208,0.20542 1.144096,-2.48336 1.144096,-3.41641 v -11.80743 c 0.929178,0.66242 1.647888,1.63374 2.590643,2.31198 0.363986,0.26186 1.010812,0.46926 1.161346,0.9401 0.1132,0.35407 0.0436,0.81472 0.0436,1.18351 l 1.17e-4,2.43646 c 0.0016,0.66267 0.07023,1.35438 0.723257,1.67561 0.513128,0.25241 1.136521,-0.0702 1.3207,-0.61428 0.269917,-0.79735 0.08323,-2.04086 0.02072,-2.87305 -0.02085,-0.27752 -0.09838,-0.77066 0.08166,-1.00627 0.245143,-0.32082 1.472387,0.13918 1.829886,0.18917 0.364213,0.0509 1.115866,-0.0647 1.37512,0.24344 0.309622,0.36799 0.131067,1.36284 0.131067,1.82312 v 5.06033 c 0,1.14318 -0.206115,2.59288 0.166461,3.68591 0.345029,1.01223 1.356488,1.83297 1.449323,2.93624 0.174252,2.07083 0.0109,4.23056 0.0109,6.30979 0,1.00529 -0.147066,2.13674 0.307651,3.06119 0.687831,1.39837 1.776033,2.59808 2.79838,3.73607 0.759694,0.84563 1.58096,1.77254 2.557235,2.35469 0.591473,0.35271 1.286809,0.52943 1.927921,0.76049 0.950435,0.34253 3.058966,0.83444 3.800653,-0.18368 0.46166,-0.63373 -0.398993,-1.05243 -0.848525,-1.24882 -0.891258,-0.38939 -1.807356,-0.6881 -2.711138,-1.04 -0.363144,-0.14139 -0.811227,-0.22174 -1.126821,-0.46152 -0.424678,-0.32267 -0.629668,-0.89533 -0.981842,-1.29336 1.454515,-0.92414 2.638557,-0.32208 4.096831,0.15092 0.869536,0.28203 1.8048,0.47117 2.711138,0.55268 0.811139,0.0729 1.931767,0.22374 2.572944,-0.42035 0.432695,-0.43466 0.282098,-0.9902 -0.168214,-1.33705 -0.788064,-0.607 -1.880664,-0.87992 -2.766215,-1.30975 -1.163813,-0.56488 -2.320125,-1.16504 -3.313613,-2.02183 -3.220003,-2.77696 -5.049679,-7.21844 -5.460656,-11.4828 -0.350714,-3.63908 -0.09726,-7.24265 2.019627,-10.30808 1.874233,-2.71404 4.725815,-4.31438 6.918741,-6.69022 2.378174,-2.57652 3.429975,-5.90296 3.32691,-9.42786 -0.104175,-3.5629 -2.158404,-6.36515 -5.358682,-7.61175 -0.944232,-0.36781 -1.960438,-0.45669 -2.952128,-0.58902 -1.653144,-0.22059 -3.244088,0.0732 -4.880049,0.29159 -2.840734,0.37921 -5.633177,1.28328 -8.314157,2.30973 -2.242381,0.85852 -4.46521,1.79645 -6.506731,3.10259 -1.440952,0.92191 -2.812328,2.09491 -3.88271,3.46191 -2.421962,3.09312 -2.322784,6.64587 -2.322784,10.40507 v 9.74582 c 0,2.49232 0.214129,5.07089 -0.443512,7.49678 -0.31768,1.17184 -0.846813,2.19801 -1.424865,3.2486 -0.585903,1.06486 -1.300612,2.01958 -2.082633,2.93624 -0.291798,0.34203 -0.622596,0.83603 -1.051493,0.99712 -0.763337,0.28671 -1.835686,-0.1108 -2.648931,-0.0471 -0.988578,0.0774 -1.630522,0.62211 -2.4099,1.19463 -0.8113031,0.59598 -1.6512292,0.99254 -2.5296539,1.45353 -0.3082453,0.16177 -0.6000347,0.44842 -0.5710748,0.8363 0.048671,0.65188 0.8412293,0.89398 1.3535506,0.99303 1.0646805,0.20584 2.0146431,0.0117 2.9521281,-0.55318 0.47629,-0.287 1.018832,-0.88195 1.566435,-0.97319 0.349192,-0.0582 0.688898,0.10486 1.024208,0.17758 0.559357,0.12132 1.129454,0.16815 1.68693,0.2944 m 30.786479,-39.23315 -2.65089,1.50842 -4.337821,2.65697 -1.927921,1.54885 -1.325445,1.03286 c 0.03712,-2.10896 0.970072,-3.74713 1.566435,-5.68506 -1.638517,0.98666 -2.874222,3.3095 -3.264625,5.18528 -0.1437,0.69043 0.0233,1.50487 -0.211802,2.16752 -0.13154,0.37077 -0.631038,0.63145 -0.898118,0.89698 -0.545397,0.54224 -1.087546,1.08465 -1.576178,1.68346 -0.201491,0.24692 -0.380584,0.68129 -0.650913,0.84748 -0.2145,0.13187 -0.399943,-0.0727 -0.528291,-0.233 -0.335649,-0.41927 -0.597401,-0.92741 -0.803255,-1.42663 -0.749996,-1.81883 -0.470242,-3.7615 0.392662,-5.49764 2.032221,-4.08878 6.261004,-6.17036 10.432401,-7.07992 1.508942,-0.32901 3.059992,-0.3459 4.578811,-0.58934 1.273788,-0.20417 2.552264,-0.38691 3.795593,-0.75726 0.27107,-0.0807 0.984373,-0.55412 1.240495,-0.33561 0.235433,0.20085 -0.01679,0.99368 -0.04424,1.26535 -0.128934,1.27578 -0.392793,2.54576 -0.592366,3.81086 -0.839567,5.32209 -3.127837,12.10661 -8.978288,13.25088 -1.902614,0.37212 -3.971765,0.19305 -5.844009,-0.30337 -0.367065,-0.0973 -1.837453,-0.32349 -1.71922,-0.89594 0.0725,-0.35102 0.45364,-0.63587 0.679396,-0.88322 0.569371,-0.62385 1.135237,-1.25076 1.71443,-1.86486 2.463402,-2.61188 5.183943,-4.77605 7.880541,-7.1066 0.766748,-0.66266 1.513954,-1.34496 2.228033,-2.06832 0.334707,-0.33906 0.732101,-0.63716 0.84459,-1.12814 m -10.181829,1.93667 0.06025,0.0625 -0.06025,-0.0625 m 2.289407,7.87105 c 2.165226,0.35711 5.145647,-0.46195 6.084999,-2.74882 -2.261576,0 -5.04018,0.23611 -6.084999,2.74882"
         id="path31432"
         sodipodi:nodetypes="cssssssccssssssccsssccscccssssssssssscssssssssscssssssssssscssssssssssssscsssccsssssccccccccssssscssssssscsssssscsscssccssssssssssssssssssscscsssssssssssssssssssssssssssscccccccssssscsssscssssssssssccccccc"
         clip-path="url(#clipPath31439)" /><path
         style="fill:#43a2ca;fill-rule:evenodd;stroke:#000000;stroke-width:1.175;stroke-linecap:square;stroke-dasharray:none;paint-order:markers stroke fill"
         d="m 63.055761,114.90161 c 0,26.39 0,52.78 0,79.17001"
         id="path31437"
         inkscape:path-effect="#path-effect31437"
         inkscape:original-d="m 63.055761,114.90161 c 0,26.39 0,52.78 0,79.17001"
         transform="translate(-0.26273237,-0.9633519)"
         clip-path="url(#clipPath31437)" /><text
         xml:space="preserve"
         style="font-size:14.8167px;line-height:1.25;font-family:Tahoma;-inkscape-font-specification:'Tahoma, Normal';text-align:center;text-anchor:middle;fill:#43a2ca;fill-rule:evenodd;stroke:#000000;stroke-width:1.175;stroke-linecap:square;stroke-dasharray:none;paint-order:markers stroke fill"
         x="67.571823"
         y="138.54752"
         id="text31441"><tspan
           sodipodi:role="line"
           id="tspan31441"
           style="font-style:normal;font-variant:normal;font-weight:bold;font-stretch:normal;font-size:14.8167px;line-height:1.25;font-family:Arial;-inkscape-font-specification:'Arial Bold';text-align:start;text-anchor:start;fill:#000000;fill-opacity:1;stroke:none;stroke-width:1.175"
           x="67.571823"
           y="138.54752"> DEFORESTATION</tspan><tspan
           sodipodi:role="line"
           style="font-style:normal;font-variant:normal;font-weight:bold;font-stretch:normal;font-size:14.8167px;line-height:1.25;font-family:Arial;-inkscape-font-specification:'Arial Bold';text-align:start;text-anchor:start;fill:#000000;fill-opacity:1;stroke:none;stroke-width:1.175"
           x="67.571823"
           y="157.23991"
           id="tspan31442"> FOOTPRINT</tspan><tspan
           sodipodi:role="line"
           style="font-style:normal;font-variant:normal;font-weight:bold;font-stretch:normal;font-size:14.8167px;line-height:1.25;font-family:Arial;-inkscape-font-specification:'Arial Bold';text-align:start;text-anchor:start;fill:#c20000;fill-opacity:1;stroke:none;stroke-width:1.175"
           x="67.571823"
           y="175.9323"
           id="tspan31443">.EARTH</tspan></text><path
         style="fill:#79bd2e;fill-opacity:1;fill-rule:evenodd;stroke:#79bd2e;stroke-width:0.275;stroke-linecap:square;stroke-dasharray:none;stroke-opacity:1;paint-order:markers stroke fill"
         d="m 34.343463,55.481078 c -0.366399,0.180619 -1.099197,0.541857 -2.043589,1.233381 -0.944393,0.691524 -2.100333,1.713293 -2.858938,2.729931 -0.758604,1.016638 -1.119836,2.028086 -1.301655,3.146874 -0.181819,1.118788 -0.184219,2.34482 -0.157789,2.971684 0.02643,0.626864 0.08168,0.654476 0.280908,0.408623 0.199231,-0.245854 0.542416,-0.765147 0.969703,-1.228613 0.427288,-0.463466 0.938633,-0.871053 1.311917,-1.184675 0.373283,-0.313622 0.60848,-0.533259 0.712114,-1.09402 0.103633,-0.560762 0.0757,-1.462621 0.268151,-2.290281 0.192455,-0.827659 0.605297,-1.581096 1.172965,-2.38099 0.567668,-0.799893 1.29013,-1.646206 1.651369,-2.069371 0.361238,-0.423165 0.361243,-0.423162 -0.0052,-0.242543 z"
         id="path31443"
         inkscape:path-effect="#path-effect31444"
         inkscape:original-d="m 34.709862,55.300459 c -0.732798,0.361238 -1.465596,0.722476 -2.198394,1.083714 -1.155986,1.021811 -2.311927,2.043579 -3.467891,3.065368 -0.361244,1.011488 -0.722477,2.022935 -1.083715,3.034403 -0.0024,1.226108 -0.0048,2.45214 -0.0072,3.678248 0.05526,0.02762 0.110508,0.05523 0.165763,0.08285 0.343206,-0.519325 0.686391,-1.038618 1.029597,-1.557944 0.511369,-0.407606 1.022714,-0.815193 1.534077,-1.222794 0.235204,-0.219643 0.470401,-0.43928 0.705605,-0.658923 -0.02794,-0.90188 -0.05588,-1.803739 -0.08381,-2.705614 0.412846,-0.753444 0.825688,-1.506881 1.238533,-2.260322 0.72249,-0.846347 1.444953,-1.692659 2.16743,-2.538989 z"
         transform="translate(2.9338444,87.577445)"
         sodipodi:nodetypes="sccccccccccss" /></g><path
       style="fill:#46ab2e;fill-opacity:1;fill-rule:evenodd;stroke:#46ab2e;stroke-width:0.1;stroke-linecap:square;stroke-dasharray:none;stroke-opacity:1;paint-order:markers stroke fill"
       d="m 41.334141,133.58131 c -0.05188,-0.14221 -0.311441,-4.56048 -0.268779,-4.57519 0.02376,-0.008 0.167989,-0.27128 0.320495,-0.58465 0.632486,-1.29962 1.703837,-2.63822 3.067283,-3.89157 0.844179,-0.77602 1.806995,-1.5177 2.891607,-2.23992 0.527976,-0.35156 1.194837,-0.77744 1.512229,-0.9565 0.523385,-0.29527 0.667112,-0.40802 0.602485,-0.47265 -0.04018,-0.0402 -0.729692,0.1735 -1.280374,0.43596 -0.729086,0.34748 -1.297377,0.66576 -2.071233,1.23538 -0.603583,0.44429 -1.367837,1.06739 -2.198388,1.80736 -1.212604,1.08035 -1.676001,1.54495 -1.654813,1.47148 0.01072,-0.0372 0.208764,-1.98713 0.299604,-2.56038 0.130651,-0.82451 0.360349,-1.62938 0.751054,-2.33894 0.349099,-0.634 0.833408,-1.18357 1.383803,-1.73639 1.150178,-1.15526 2.529186,-1.91099 4.434395,-2.48442 1.752235,-0.5274 4.031681,-0.77648 6.032669,-0.65921 0.985901,0.0578 2.139953,0.18186 2.194933,0.23599 0.04229,0.0416 -0.240183,1.12226 -0.454448,1.73851 -1.241118,3.56963 -3.729966,6.54073 -6.818566,8.13976 -1.542524,0.7986 -3.293081,1.30041 -5.059887,1.45045 -0.738208,0.0627 -1.150157,0.15136 -1.40966,0.30344 -0.264851,0.15522 -0.611616,0.55424 -0.862105,0.99203 -0.54334,0.94961 -1.137872,2.87549 -1.324936,4.29189 -0.03397,0.25725 -0.07329,0.43615 -0.08737,0.39757 z"
       id="path31452"
       sodipodi:nodetypes="ssssssssssssssssssssssss" /></g></svg>
